<?xml version="1.0" standalone="no"?>
<!DOCTYPE svg PUBLIC "-//W3C//DTD SVG 20010904//EN"
 "http://www.w3.org/TR/2001/REC-SVG-20010904/DTD/svg10.dtd">
<svg version="1.0" xmlns="http://www.w3.org/2000/svg"
 width="2075.000000pt" height="1220.000000pt" viewBox="0 0 2075.000000 1220.000000"
 preserveAspectRatio="xMidYMid meet">

<g transform="translate(0.000000,1220.000000) scale(0.100000,-0.100000)"
fill="#000000" stroke="none">
<path d="M11464 9628 c-27 -29 -68 -80 -89 -112 -55 -83 -131 -163 -171 -182
-19 -9 -42 -30 -51 -47 -14 -29 -138 -185 -156 -198 -5 -3 -42 -39 -83 -79
l-74 -73 -107 33 c-742 223 -1515 349 -2338 381 -362 14 -1033 6 -1324 -16
-113 -9 -211 -13 -219 -10 -8 3 -53 -1 -101 -9 -47 -8 -115 -17 -151 -20 -82
-8 -318 -41 -475 -66 -66 -11 -154 -25 -195 -30 -41 -6 -88 -13 -105 -16 -16
-4 -27 -3 -24 0 3 4 69 20 145 36 76 16 193 40 259 55 66 14 158 33 205 42
131 26 64 28 -99 3 -334 -50 -669 -112 -876 -160 -44 -10 -132 -31 -195 -46
-279 -65 -696 -195 -1005 -312 -199 -76 -466 -190 -505 -217 -19 -13 -110 -61
-202 -106 l-167 -83 -25 23 c-14 13 -28 32 -31 42 -4 10 -27 25 -58 35 -97 32
-187 82 -198 112 -6 15 -18 36 -28 47 -30 34 -84 125 -78 131 3 4 61 -1 129
-10 120 -15 273 -58 350 -97 20 -10 63 -28 95 -40 32 -11 75 -27 95 -36 20 -9
45 -13 54 -9 16 6 16 8 -1 26 -9 10 -40 27 -69 36 -28 9 -87 33 -131 52 -113
48 -247 89 -335 102 -41 6 -99 15 -129 20 -66 12 -101 -4 -101 -46 0 -26 55
-128 90 -169 10 -11 21 -29 24 -40 4 -11 17 -31 29 -45 25 -28 125 -83 172
-94 17 -4 47 -19 68 -32 l39 -26 -109 -66 c-248 -151 -531 -355 -698 -502 -22
-19 -67 -57 -99 -85 -32 -27 -115 -111 -185 -185 -159 -172 -169 -183 -241
-283 -33 -45 -64 -87 -70 -94 -5 -7 -10 -15 -10 -18 0 -3 -14 -24 -30 -47 -17
-22 -30 -47 -30 -55 0 -7 -4 -13 -8 -13 -4 0 -15 -15 -23 -32 -8 -18 -27 -55
-42 -83 -14 -27 -36 -72 -47 -100 -12 -27 -28 -64 -36 -82 -8 -17 -14 -36 -14
-42 0 -6 -4 -19 -9 -29 -14 -25 -58 -178 -71 -247 -7 -33 -16 -82 -22 -108
-20 -105 -6 -95 86 56 49 81 91 147 93 147 2 0 2 -28 -1 -62 -13 -157 -18
-757 -7 -838 24 -183 56 -318 102 -425 7 -16 13 -32 14 -35 7 -22 22 -51 42
-82 13 -21 23 -42 23 -48 0 -11 31 -88 49 -120 39 -73 65 -118 77 -131 8 -8
14 -19 14 -23 0 -14 168 -234 246 -321 78 -87 252 -260 329 -327 62 -53 275
-220 323 -253 24 -17 51 -36 61 -43 16 -11 21 -7 46 30 15 24 52 66 81 94 l54
51 -39 26 c-112 74 -537 469 -525 488 3 5 14 9 25 9 11 0 22 7 25 15 4 10 28
-9 82 -68 42 -45 99 -104 127 -132 58 -57 320 -286 341 -298 9 -5 35 9 79 44
l65 53 -77 44 c-136 77 -236 149 -310 223 -89 88 -172 209 -144 209 5 0 47
-16 92 -36 56 -24 89 -32 101 -27 15 7 2 19 -70 70 -48 34 -143 103 -212 153
-206 151 -194 144 -234 130 -20 -6 -36 -16 -36 -21 0 -23 -21 -5 -43 39 -65
127 -78 152 -107 217 -17 39 -35 77 -39 85 -5 9 -12 31 -16 50 -4 19 -11 41
-16 50 -23 43 -64 222 -85 373 -26 190 -9 495 40 692 28 113 38 150 46 170 4
11 18 49 31 85 68 197 232 504 321 604 10 11 18 23 18 26 0 4 8 16 18 28 9 11
28 36 42 54 119 156 361 384 560 526 62 45 260 176 287 190 19 11 23 7 48 -39
14 -29 50 -88 79 -133 29 -44 63 -100 76 -124 l25 -44 -92 -84 c-160 -147
-362 -393 -332 -403 6 -2 14 0 18 5 20 29 307 244 324 244 6 0 -32 -44 -86
-97 -121 -122 -248 -289 -195 -257 7 5 49 37 93 73 44 36 85 68 91 73 6 4 87
34 181 67 l171 59 29 -32 c76 -83 74 -80 99 -213 13 -70 22 -139 18 -153 -12
-51 -47 -120 -61 -120 -17 0 -32 -37 -26 -70 3 -23 240 -388 306 -473 18 -24
107 -90 222 -167 189 -126 243 -174 211 -186 -21 -8 -52 -61 -77 -130 -80
-222 -81 -212 19 -316 57 -60 117 -107 233 -183 163 -107 221 -133 359 -159
41 -8 116 -24 165 -36 87 -20 117 -28 197 -48 21 -6 65 -24 97 -41 33 -17 68
-31 77 -31 9 0 55 -18 103 -41 130 -61 205 -79 346 -79 129 0 280 14 332 31
127 41 333 53 538 31 353 -37 424 -44 580 -51 246 -11 462 16 605 78 204 88
228 86 292 -34 34 -65 187 -254 218 -270 77 -40 193 -5 265 80 67 78 79 88
166 134 l84 43 105 -30 c107 -30 210 -52 247 -52 11 0 28 9 37 19 23 25 14 86
-17 123 -76 89 -208 300 -230 368 -20 60 -38 104 -78 186 l-25 53 29 12 c16 7
41 22 56 34 24 20 32 21 105 13 97 -10 137 2 242 73 41 28 105 61 141 75 37
14 78 33 92 43 14 10 57 33 96 50 38 18 90 44 114 58 38 22 58 26 140 28 84 3
97 6 113 25 10 12 18 37 18 56 0 19 3 34 8 34 4 0 24 -17 44 -38 20 -20 63
-50 95 -67 31 -16 62 -33 68 -37 254 -185 257 -187 374 -153 104 31 182 36
285 21 88 -13 119 -8 134 21 5 10 19 59 31 108 12 50 30 106 40 125 10 19 24
60 31 90 7 30 20 75 30 100 10 25 21 59 24 76 3 18 15 48 28 67 57 89 76 126
94 177 10 30 31 75 46 100 15 25 30 66 34 90 4 25 11 50 15 56 21 27 87 162
94 193 7 31 36 101 91 215 13 28 24 61 24 74 0 14 13 48 29 76 16 28 36 72 46
99 10 26 22 47 27 47 10 0 70 -53 184 -162 75 -71 94 -86 94 -73 0 10 -120
143 -194 215 -84 83 -86 90 -45 172 10 20 25 75 34 122 8 47 24 104 35 126
l21 41 82 -57 c224 -155 447 -337 607 -495 225 -221 323 -347 497 -634 7 -11
28 -54 48 -95 20 -41 40 -83 46 -92 5 -10 9 -23 9 -30 0 -7 7 -26 15 -41 8
-15 17 -45 21 -65 4 -20 10 -41 14 -47 4 -5 13 -39 20 -75 6 -36 16 -87 22
-115 13 -67 13 -425 0 -500 -18 -100 -57 -268 -71 -300 -4 -11 -23 -58 -41
-105 -18 -47 -43 -108 -56 -137 -13 -29 -28 -62 -34 -75 -5 -13 -23 -45 -39
-73 -16 -27 -39 -68 -51 -90 -25 -46 -105 -167 -135 -206 -11 -14 -27 -37 -35
-50 -16 -24 -108 -129 -125 -141 -5 -4 -6 -8 -1 -8 5 0 -6 -11 -25 -23 -19
-13 -33 -29 -31 -36 1 -7 -2 -10 -7 -7 -5 4 -30 -13 -54 -36 -25 -24 -55 -51
-67 -61 -11 -10 -18 -22 -15 -27 3 -5 0 -8 -7 -5 -17 6 -52 -21 -43 -34 3 -6
0 -9 -7 -6 -18 6 -61 -32 -52 -46 4 -8 3 -9 -5 -5 -15 10 -84 -42 -75 -56 4
-7 2 -8 -5 -4 -6 4 -22 -1 -35 -11 l-23 -18 24 -18 c12 -10 23 -28 23 -40 0
-18 6 -15 45 23 48 47 58 68 24 49 -16 -8 -24 -8 -33 1 -8 8 -6 9 8 4 15 -6
17 -4 11 7 -4 8 -5 11 -1 7 14 -12 129 80 119 95 -3 6 -1 7 5 3 13 -8 53 24
46 36 -3 4 2 5 10 2 15 -6 21 6 17 29 -1 5 3 6 9 2 13 -8 81 55 73 68 -3 6 -1
7 5 3 6 -3 13 -2 16 3 4 5 50 33 104 62 126 67 216 126 327 215 99 79 269 251
286 290 2 5 23 38 46 74 23 36 42 69 42 74 -1 5 3 12 8 15 5 3 17 24 27 46 9
22 21 47 25 55 5 9 12 31 16 50 4 19 11 40 15 45 4 6 13 30 19 55 7 25 17 61
22 80 15 51 38 164 50 250 13 93 6 446 -11 515 -6 28 -19 79 -27 115 -8 36
-18 76 -23 90 -4 14 -18 59 -31 100 -13 41 -26 79 -31 85 -4 5 -8 15 -8 23 0
37 -165 365 -224 447 -37 51 -98 133 -118 160 -13 16 -81 88 -153 160 -201
201 -511 432 -872 650 l-132 79 20 35 c19 33 40 82 60 146 9 32 12 38 107 235
60 125 102 245 102 293 0 36 -66 112 -183 211 -50 42 -73 55 -87 51 -26 -8
-70 -64 -161 -202 -58 -89 -78 -113 -96 -113 -21 0 -23 5 -23 53 0 34 -7 63
-20 85 -11 18 -20 48 -20 68 0 39 -24 104 -43 116 -33 21 -64 2 -131 -84 l-29
-38 -24 43 c-14 23 -35 52 -49 65 -13 13 -24 30 -24 38 0 33 -141 265 -215
354 -19 23 -35 50 -35 59 0 25 -42 61 -71 61 -17 0 -41 -17 -75 -52z m106 -31
c11 -24 28 -52 40 -62 26 -23 138 -192 179 -269 17 -32 31 -69 31 -82 0 -14
11 -31 29 -43 15 -11 45 -52 66 -91 l37 -71 24 33 c13 18 27 38 31 43 5 6 23
29 41 53 19 23 37 42 42 42 14 0 32 -70 28 -108 -4 -28 0 -40 16 -53 17 -14
22 -32 26 -96 l5 -78 28 3 c19 2 33 -3 41 -14 11 -15 18 -9 58 52 24 38 58 89
74 113 16 24 38 58 50 77 24 40 64 84 76 84 5 0 57 -47 115 -104 l106 -105
-23 -78 c-26 -87 -69 -183 -92 -207 -9 -8 -25 -45 -37 -81 -11 -36 -29 -79
-41 -94 -11 -16 -20 -39 -20 -51 0 -27 -88 -214 -129 -273 -17 -25 -31 -52
-31 -59 0 -8 -15 -45 -34 -84 -21 -44 -38 -97 -45 -147 -6 -43 -19 -94 -30
-115 -10 -20 -21 -55 -24 -77 -7 -46 -51 -153 -85 -207 -13 -20 -25 -54 -28
-75 -3 -21 -16 -60 -29 -88 -61 -129 -83 -183 -89 -216 -3 -19 -17 -51 -31
-69 -14 -19 -25 -39 -25 -46 0 -6 -11 -27 -24 -46 -12 -19 -25 -55 -28 -80 -3
-28 -17 -63 -37 -91 -17 -25 -31 -53 -31 -63 0 -23 -46 -118 -65 -134 -8 -7
-15 -20 -15 -30 0 -9 -11 -30 -24 -45 -14 -16 -27 -48 -31 -74 -4 -25 -15 -62
-26 -83 -10 -20 -19 -47 -19 -59 0 -36 -22 -103 -42 -125 -10 -12 -23 -49 -29
-85 -6 -35 -14 -68 -20 -74 -5 -5 -9 -19 -9 -31 0 -13 -3 -25 -7 -27 -5 -2
-48 2 -98 9 -100 16 -162 12 -281 -18 -106 -26 -130 -19 -264 77 -58 42 -137
94 -177 116 -40 21 -77 48 -82 58 -14 25 -60 40 -89 30 -17 -6 -22 -16 -22
-41 0 -18 -3 -43 -6 -55 -5 -19 -9 -21 -27 -12 -29 16 -166 6 -197 -13 -43
-28 -262 -138 -325 -164 -33 -13 -90 -45 -127 -70 -102 -68 -125 -75 -238 -72
-88 3 -101 1 -122 -18 -12 -12 -37 -29 -54 -37 -17 -9 -38 -27 -47 -40 -15
-23 -14 -28 12 -83 47 -96 68 -145 90 -213 23 -68 102 -199 188 -311 51 -66
79 -118 69 -128 -3 -2 -29 5 -58 16 -29 11 -108 35 -176 53 -100 27 -128 30
-155 22 -55 -17 -173 -91 -201 -125 -66 -83 -84 -99 -134 -118 -104 -40 -143
-21 -252 119 -44 57 -87 118 -95 135 -9 18 -29 48 -46 69 -26 32 -36 37 -73
37 -52 0 -121 -20 -209 -60 -119 -54 -252 -74 -492 -75 -200 0 -287 6 -695 50
-74 8 -165 15 -202 15 -64 0 -254 -28 -334 -49 -78 -20 -250 -34 -354 -28
-125 8 -179 21 -298 76 -49 22 -94 41 -101 41 -6 0 -33 11 -59 24 -85 42 -315
105 -505 137 -87 14 -180 53 -258 106 -39 27 -105 71 -148 98 -43 28 -109 78
-146 112 l-68 61 12 48 c7 26 21 67 32 90 10 24 19 48 19 55 0 29 44 100 71
116 16 10 29 23 29 30 0 16 -38 81 -64 112 -22 25 -371 261 -386 261 -11 0
-301 430 -307 455 -4 16 -3 17 6 5 8 -11 11 -11 11 -2 0 7 8 29 17 50 9 20 26
61 38 91 l21 54 -26 142 c-15 82 -34 155 -45 171 -19 30 -75 97 -159 189 -39
44 -53 70 -77 145 -27 87 -49 128 -173 324 -31 49 -56 94 -56 100 0 6 37 31
83 54 45 23 98 52 117 64 59 36 376 181 540 246 576 230 1062 376 1790 537
312 68 408 76 1090 82 511 5 737 -1 1055 -27 61 -5 170 -14 243 -20 404 -30
1142 -138 1612 -235 266 -55 415 -87 419 -91 2 -2 -8 -8 -23 -14 -31 -11 -130
-86 -160 -119 -11 -11 -26 -21 -35 -21 -8 0 -94 20 -191 45 -175 44 -559 123
-700 144 -41 6 -136 20 -211 31 -173 25 -522 56 -804 71 -253 13 -681 6 -945
-16 -96 -8 -229 -19 -295 -24 -128 -11 -493 -61 -635 -87 -333 -61 -536 -105
-779 -166 -116 -30 -126 -31 -165 -17 -30 10 -46 24 -61 52 -11 21 -28 43 -38
49 -27 14 -73 -8 -87 -42 -7 -16 -28 -45 -48 -66 l-35 -36 -219 11 c-197 10
-227 14 -305 40 -69 23 -91 26 -105 18 -10 -7 -18 -14 -18 -17 0 -12 207 -71
260 -75 30 -2 138 -7 240 -11 l186 -6 12 26 c6 15 19 29 28 33 8 3 22 23 31
44 8 21 19 37 23 34 5 -3 10 1 13 7 3 7 12 -3 20 -22 22 -50 45 -68 110 -85
65 -17 55 -17 297 -11 165 3 192 6 250 28 79 30 72 28 114 28 28 0 33 3 29 18
-3 14 6 20 42 30 26 7 50 10 55 7 5 -3 18 2 28 12 41 39 61 51 79 48 10 -2 25
-4 35 -4 10 -1 15 -8 13 -18 -1 -10 2 -24 7 -30 7 -9 5 -27 -7 -55 -29 -73
-28 -89 10 -130 19 -21 57 -50 85 -66 27 -16 48 -31 45 -34 -5 -5 153 -34 166
-31 3 1 29 4 56 6 55 4 76 13 68 28 -11 17 24 21 77 8 29 -6 60 -16 68 -22 11
-6 31 -4 63 7 59 20 97 20 123 1 10 -8 27 -15 38 -15 22 0 100 -75 92 -89 -6
-10 12 -19 62 -31 32 -8 83 6 195 53 20 9 56 19 79 22 24 4 45 8 48 10 3 2 37
6 75 10 39 4 75 8 80 10 6 1 33 5 60 9 28 4 64 12 80 16 17 5 44 11 60 13 36
5 197 44 241 57 41 13 54 12 54 -3 0 -13 -88 -38 -232 -68 -32 -7 -58 -15 -58
-19 0 -4 -46 -15 -102 -25 -57 -9 -113 -23 -125 -31 -12 -8 -24 -10 -27 -5 -7
11 -170 1 -174 -10 -2 -5 -11 -9 -20 -10 -24 0 -210 -78 -189 -78 9 -1 17 -7
17 -15 0 -8 8 -12 23 -9 20 4 27 -2 46 -46 12 -28 26 -51 31 -51 13 0 13 0 -5
49 -8 22 -12 41 -8 41 3 0 1 6 -5 13 -16 19 -6 29 70 64 4 2 14 -10 23 -27 8
-16 13 -30 10 -30 -4 0 -3 -6 2 -12 4 -7 8 -18 9 -23 6 -41 40 -125 52 -130
22 -8 27 2 13 28 -7 13 -13 29 -15 37 -2 8 -8 26 -13 40 -14 31 -9 36 50 48
56 11 52 17 83 -105 14 -57 22 -73 36 -73 21 0 19 26 -6 98 -9 23 -15 43 -15
45 0 1 -4 15 -10 30 -24 63 -24 73 5 85 31 15 35 12 50 -31 10 -28 15 -32 45
-31 19 0 45 3 58 5 23 4 26 -1 42 -59 17 -66 44 -110 37 -62 -2 17 2 25 12 25
10 0 14 9 13 25 -5 51 -9 75 -14 85 -3 6 -5 21 -5 35 1 24 3 25 74 25 40 0 72
-4 73 -10 1 -5 10 -22 20 -36 10 -14 17 -28 14 -30 -9 -9 31 -48 42 -41 9 5 9
18 0 49 -8 33 -8 45 3 58 13 16 35 16 35 -1 0 -5 3 -13 6 -19 4 -5 12 -27 19
-48 9 -28 16 -36 28 -33 35 11 187 46 200 46 6 0 12 -6 12 -14 0 -8 -16 -17
-37 -21 -21 -4 -53 -13 -71 -21 -27 -11 -32 -18 -27 -34 5 -17 0 -23 -25 -31
-37 -13 -34 -35 4 -31 14 1 26 -2 26 -8 0 -5 7 -10 15 -10 11 0 14 8 10 33 -4
24 -1 38 10 47 22 18 31 5 47 -61 l13 -55 91 15 c80 14 95 20 117 46 20 24 41
35 99 48 89 22 332 131 336 152 2 8 8 15 13 15 5 0 9 6 9 13 0 6 12 18 28 25
23 11 29 10 39 -5 7 -9 13 -23 13 -30 0 -19 74 -17 113 3 32 17 98 63 107 76
15 20 122 49 217 58 148 15 226 26 307 44 70 16 100 37 226 157 48 45 118 96
158 114 38 18 163 125 236 203 28 29 89 90 135 135 96 94 106 105 190 206 33
40 61 80 61 87 0 7 17 22 38 33 46 24 104 85 167 176 49 72 133 165 148 165 4
0 17 -19 27 -43z m-4020 -296 c5 -11 10 -22 10 -25 0 -3 -29 -6 -65 -6 -36 0
-65 -4 -65 -9 0 -6 -124 -9 -302 -9 -237 1 -282 3 -208 10 52 4 165 16 250 24
133 14 263 26 347 32 13 1 27 -6 33 -17z m1306 -171 c519 -60 822 -109 1189
-191 160 -36 630 -152 635 -156 8 -7 -73 -73 -89 -73 -8 0 -51 13 -95 29 -329
117 -923 246 -1421 306 -71 9 -137 18 -146 21 -16 4 -290 33 -321 34 -13 0
-18 8 -18 30 0 17 2 30 4 30 2 0 120 -14 262 -30z m-276 -380 c272 -10 631
-46 906 -91 258 -41 637 -120 777 -161 l48 -14 -41 -33 c-53 -43 -84 -51 -173
-44 -67 5 -75 4 -88 -15 -14 -20 -17 -20 -94 -6 -44 7 -168 23 -275 34 -107
11 -233 25 -280 30 -47 6 -105 9 -130 9 -71 -1 -11 -15 101 -24 52 -4 184 -20
294 -36 109 -16 204 -29 210 -30 17 -1 -29 -18 -52 -18 -37 -1 -129 -40 -159
-67 -33 -29 -117 -74 -138 -74 -7 0 -16 9 -19 20 -3 11 -17 25 -31 31 -35 16
-96 -11 -121 -53 -11 -20 -37 -39 -74 -55 -31 -14 -76 -35 -101 -48 -25 -13
-87 -35 -139 -49 -71 -19 -101 -32 -126 -56 -23 -22 -46 -33 -86 -39 -30 -5
-57 -6 -61 -3 -3 4 -9 23 -13 44 -6 31 -4 37 14 43 48 15 52 89 5 101 -13 4
-64 -3 -112 -14 -48 -11 -90 -17 -93 -14 -4 4 -12 24 -19 45 -16 50 -51 68
-90 45 -21 -12 -31 -13 -40 -4 -6 6 -41 13 -78 16 l-67 6 40 10 c22 6 85 21
140 34 55 13 109 31 119 41 17 16 18 21 6 48 -7 18 -22 34 -36 37 -13 3 -78
-8 -146 -24 -171 -42 -302 -68 -448 -87 -90 -13 -150 -27 -215 -52 -49 -20
-111 -38 -137 -41 -43 -4 -47 -3 -62 26 -17 32 -83 92 -102 92 -7 0 -25 7 -40
15 -34 17 -98 19 -141 4 -23 -8 -45 -6 -91 5 -86 23 -127 21 -147 -6 -14 -21
-23 -23 -103 -22 -74 0 -95 5 -140 28 -65 33 -132 92 -132 116 0 10 7 34 16
55 10 25 13 50 9 76 -4 24 -3 39 3 39 6 0 53 7 104 15 240 38 371 57 458 65
52 5 169 17 260 26 302 30 730 39 1130 24z m-2450 -240 c-8 -5 -24 -9 -35 -9
-16 1 -16 2 5 9 35 11 48 11 30 0z m3970 -147 c0 -5 -14 -9 -30 -10 -17 -1
-30 2 -30 7 0 6 14 10 30 10 17 0 30 -3 30 -7z m-1938 -192 c-3 -19 -9 -28
-17 -25 -7 3 -29 1 -49 -4 -31 -9 -36 -8 -42 10 -7 24 -8 23 41 36 67 17 72
15 67 -17z m-291 -21 c19 0 29 -5 29 -15 0 -8 -6 -15 -14 -15 -7 0 -27 -3 -43
-6 -23 -4 -32 -2 -37 11 -8 22 2 38 21 31 8 -3 28 -6 44 -6z"/>
<path d="M7522 8048 c13 -23 24 -45 25 -47 1 -1 6 0 11 3 17 10 2 42 -30 66
l-30 22 24 -44z"/>
<path d="M8535 8020 c4 -6 11 -8 16 -5 14 9 11 15 -7 15 -8 0 -12 -5 -9 -10z"/>
<path d="M12965 6800 c-3 -5 -1 -10 4 -10 6 0 11 5 11 10 0 6 -2 10 -4 10 -3
0 -8 -4 -11 -10z"/>
<path d="M12980 6774 c0 -6 37 -93 50 -116 6 -10 10 -23 10 -30 0 -7 6 -24 13
-38 12 -23 34 -93 57 -180 39 -144 48 -483 18 -640 -24 -129 -41 -187 -69
-242 -5 -10 -9 -23 -9 -29 0 -6 -6 -25 -14 -42 -41 -91 -56 -127 -56 -136 0
-6 -3 -11 -7 -11 -5 0 -17 -19 -28 -43 -20 -44 -105 -188 -115 -197 -3 -3 -14
-18 -24 -35 -29 -47 -95 -134 -159 -209 -58 -69 -67 -92 -25 -63 34 22 205
193 263 262 28 33 58 69 68 80 10 11 28 36 40 55 11 19 24 37 27 40 24 20 100
159 139 255 78 187 106 367 90 565 -13 167 -40 286 -94 415 -7 17 -21 53 -31
80 -10 28 -38 86 -62 130 -23 44 -48 92 -53 108 -9 23 -29 38 -29 21z"/>
<path d="M12540 6440 c0 -5 5 -10 10 -10 6 0 10 -7 10 -16 0 -9 6 -30 14 -47
81 -184 81 -485 -1 -677 -32 -76 -100 -199 -135 -245 -27 -36 -103 -133 -116
-147 -8 -10 -11 -18 -6 -18 23 1 244 233 244 258 0 6 4 12 8 12 11 0 67 111
98 195 51 139 40 386 -23 525 -53 118 -86 180 -94 180 -5 0 -9 -4 -9 -10z"/>
<path d="M2879 6102 c-2 -15 -4 -22 -12 -42 -20 -50 -38 -254 -33 -360 8 -135
43 -316 68 -344 4 -6 8 -16 8 -24 0 -14 5 -27 54 -132 80 -173 203 -336 410
-545 216 -217 422 -385 473 -385 63 0 56 15 -44 90 -266 199 -524 463 -640
655 -20 33 -39 62 -42 65 -3 3 -14 21 -24 40 -11 19 -25 46 -32 60 -49 89
-110 249 -135 350 -42 166 -63 450 -40 530 6 22 6 38 0 44 -7 7 -10 6 -11 -2z"/>
<path d="M3676 4768 c12 -21 88 -130 109 -157 56 -74 206 -208 313 -279 97
-65 128 -80 171 -86 65 -9 73 -3 29 20 -44 23 -242 156 -298 201 -70 56 -200
182 -259 251 -29 34 -57 62 -63 62 -5 0 -6 -6 -2 -12z"/>
<path d="M11579 4568 c-12 -24 -44 -70 -72 -103 -27 -33 -54 -69 -59 -80 -6
-11 -36 -39 -69 -62 -62 -45 -90 -88 -110 -169 -13 -55 -228 -598 -349 -884
-67 -157 -100 -255 -127 -377 -8 -36 11 -27 56 25 33 38 42 44 50 32 8 -12 13
-12 23 -2 19 19 28 14 28 -14 0 -35 -15 -59 -62 -102 -52 -48 -77 -61 -110
-62 -32 0 -37 -20 -11 -41 9 -8 22 -29 30 -46 11 -28 19 -33 45 -33 18 0 48
-11 70 -26 l38 -27 242 41 c134 23 308 48 388 57 98 11 149 21 156 31 6 8 26
19 43 25 19 7 36 22 41 35 8 20 17 24 49 24 38 0 101 27 101 43 0 12 -73 8
-115 -8 -53 -19 -109 -19 -125 0 -9 10 -9 15 -1 15 6 0 11 3 11 8 0 4 -26 5
-57 3 -41 -2 -67 2 -90 14 -31 17 -39 17 -196 -4 -177 -23 -267 -27 -267 -11
0 15 169 350 176 350 4 0 4 -21 0 -47 -10 -79 7 -82 43 -9 37 75 121 315 121
345 0 19 6 21 59 21 54 0 60 -2 63 -22 3 -20 11 -24 71 -32 37 -4 67 -12 67
-15 0 -8 -31 -49 -113 -149 -56 -68 -58 -73 -52 -114 5 -35 1 -52 -18 -89 -24
-45 -73 -118 -126 -188 l-26 -35 60 38 c33 21 83 56 112 77 59 44 67 47 59 21
-5 -16 -2 -18 26 -14 48 6 155 116 299 305 66 86 132 165 146 174 14 9 60 22
102 29 85 13 126 5 119 -24 -19 -71 -80 -331 -92 -392 -14 -69 -11 -138 7
-156 3 -3 15 13 28 35 12 23 26 38 30 34 4 -5 15 -71 24 -148 9 -77 18 -142
21 -144 9 -9 34 23 45 57 21 65 58 131 84 148 14 9 25 25 25 35 0 10 5 21 10
24 6 3 10 -3 10 -14 0 -41 31 -21 57 37 62 140 173 690 172 852 0 38 -4 30
-24 -55 -23 -96 -69 -247 -60 -195 2 14 13 78 24 143 12 65 26 179 33 254 14
153 13 154 -60 168 -44 8 -83 31 -79 47 7 32 -136 25 -164 -8 -22 -27 -29 -14
-23 42 l7 55 -65 -68 c-36 -37 -102 -122 -146 -188 -44 -66 -124 -181 -176
-255 l-96 -135 -107 -16 c-60 -9 -92 -17 -73 -18 58 -3 10 -22 -94 -37 -50 -8
-103 -16 -118 -20 -16 -3 -28 -2 -28 1 0 4 18 48 41 98 22 49 43 113 46 141
l5 51 -39 -75 c-22 -43 -44 -75 -53 -75 -9 0 -14 8 -12 20 13 81 27 125 76
232 66 147 86 210 86 276 0 44 -4 54 -35 84 -32 31 -35 39 -35 91 0 40 8 73
25 110 14 30 25 60 25 68 0 27 -20 13 -41 -28z m5 -355 c-7 -40 -30 -93 -41
-93 -8 0 5 87 17 110 18 34 32 23 24 -17z m840 -455 c-22 -67 -44 -88 -93 -88
-22 0 -43 4 -46 10 -11 17 22 64 86 125 64 60 64 60 67 32 2 -15 -4 -51 -14
-79z m-1113 -1 c-8 -8 -11 -2 -11 19 0 40 14 54 18 19 2 -15 -1 -32 -7 -38z
m1023 38 c-4 -8 -13 -15 -21 -15 -13 0 -13 3 -3 15 7 8 16 15 21 15 5 0 6 -7
3 -15z m-45 -56 c-19 -12 -24 -2 -8 17 9 11 14 13 17 4 3 -7 -2 -16 -9 -21z
m-1079 -165 c-83 -215 -109 -292 -124 -367 -17 -82 -34 -127 -48 -127 -16 0
-21 31 -8 55 11 20 10 28 -4 49 -22 34 -20 53 8 79 13 12 27 33 31 47 11 37
178 381 182 376 2 -2 -14 -53 -37 -112z"/>
<path d="M8010 4470 c-30 -62 -58 -113 -61 -116 -9 -5 10 106 22 127 17 33 -7
20 -49 -25 -23 -25 -57 -52 -76 -61 -49 -24 -167 -151 -199 -215 -15 -29 -24
-56 -22 -59 3 -2 28 17 57 45 56 54 55 52 -13 -54 -26 -40 -52 -87 -58 -105
-6 -19 -24 -43 -40 -55 -22 -16 -37 -44 -61 -119 -18 -54 -62 -165 -97 -247
-56 -132 -173 -453 -173 -477 0 -5 7 -9 15 -9 8 0 15 7 15 15 0 8 4 15 10 15
5 0 7 7 4 15 -7 18 19 30 44 20 16 -6 16 -8 -3 -21 -11 -8 -19 -23 -17 -33 2
-10 -7 -35 -19 -55 -12 -20 -19 -40 -15 -43 8 -8 9 -6 34 42 30 56 28 30 -12
-175 -19 -96 -33 -176 -32 -178 2 -1 26 33 54 75 76 116 140 193 167 203 14 5
25 14 25 20 0 16 27 12 34 -5 14 -36 36 5 77 141 23 80 50 158 60 173 19 31
93 73 115 64 8 -3 33 -42 56 -87 32 -60 67 -106 137 -178 57 -60 102 -98 114
-98 15 0 129 -63 156 -86 2 -2 -2 -11 -10 -20 -13 -16 -12 -16 8 -3 20 12 28
11 68 -9 50 -24 62 -13 15 15 -29 17 -39 33 -21 33 5 0 52 -20 105 -45 81 -37
206 -80 206 -70 0 3 -106 71 -183 116 -52 30 -69 54 -39 54 6 0 19 10 27 23
19 27 39 29 31 4 -5 -16 -2 -18 26 -14 48 6 155 116 299 305 66 86 132 165
146 174 14 9 60 22 102 29 85 13 126 5 119 -24 -19 -71 -80 -331 -92 -392 -14
-69 -11 -138 7 -156 3 -3 15 13 28 35 12 23 26 38 30 34 4 -5 15 -71 24 -148
9 -77 18 -142 21 -144 9 -9 34 23 45 57 21 65 58 131 84 148 14 9 25 25 25 35
0 10 5 21 10 24 6 3 10 -3 10 -14 0 -41 31 -21 57 37 62 140 173 690 172 852
0 38 -4 30 -24 -55 -23 -96 -69 -247 -60 -195 2 14 13 78 24 143 12 65 26 179
33 254 14 153 13 154 -60 168 -44 8 -83 31 -79 47 7 32 -136 25 -164 -8 -22
-27 -29 -14 -23 42 l7 55 -65 -68 c-36 -37 -102 -122 -146 -188 -44 -66 -124
-181 -176 -255 l-96 -135 -107 -16 c-61 -9 -93 -17 -73 -19 l35 -2 -30 -13
c-16 -7 -68 -18 -115 -24 -47 -6 -107 -18 -134 -26 -27 -8 -61 -16 -75 -16
-39 -2 66 -17 126 -18 46 -1 52 -4 55 -23 3 -20 11 -24 71 -32 37 -4 67 -12
67 -15 0 -9 -31 -49 -113 -149 -56 -68 -59 -73 -52 -112 5 -31 2 -50 -15 -85
-12 -25 -26 -48 -32 -51 -16 -10 -114 99 -146 163 -37 73 -62 155 -62 206 0
47 -20 46 -32 -1 -11 -43 -22 -40 -42 11 -28 74 -25 81 62 127 42 22 104 63
138 89 50 40 62 56 67 87 4 25 19 51 46 78 39 40 111 150 111 170 0 5 -10 0
-23 -12 -13 -12 -26 -22 -30 -22 -3 0 7 38 23 85 26 78 27 86 12 94 -15 9 -13
14 17 44 18 20 31 39 27 45 -3 5 -1 24 3 43 25 96 24 97 -33 19 -30 -41 -72
-103 -92 -137 -64 -109 -84 -69 -28 56 13 29 24 55 24 57 0 3 -27 -23 -60 -57
-33 -34 -60 -64 -60 -68 0 -4 -33 -45 -73 -91 -40 -47 -84 -102 -98 -123 -57
-83 -179 -205 -231 -231 -58 -29 -68 -24 -43 24 9 17 31 77 50 133 18 56 49
141 69 188 20 47 43 117 52 155 9 38 27 108 41 155 18 63 23 104 21 158 l-3
73 -55 -112z m1254 -712 c-22 -67 -44 -88 -93 -88 -22 0 -43 4 -46 10 -11 17
22 64 86 125 64 60 64 60 67 32 2 -15 -4 -51 -14 -79z m-90 37 c-4 -8 -13 -15
-21 -15 -13 0 -13 3 -3 15 7 8 16 15 21 15 5 0 6 -7 3 -15z m-45 -56 c-19 -12
-24 -2 -8 17 9 11 14 13 17 4 3 -7 -2 -16 -9 -21z m-905 -48 c3 -5 -8 -14 -26
-20 -43 -15 -47 -14 -18 9 28 22 36 24 44 11z m62 -739 c-4 -3 -14 2 -24 12
-16 18 -16 18 6 6 13 -6 21 -14 18 -18z"/>
<path d="M12854 4514 c-32 -19 -75 -47 -94 -62 -34 -27 -137 -95 -214 -142
l-40 -24 35 -9 c19 -5 42 -16 51 -24 16 -14 23 -11 80 30 35 26 68 50 73 54
49 39 179 135 214 158 l44 29 -29 13 c-43 18 -55 16 -120 -23z"/>
<path d="M10788 4463 c6 -2 18 -2 25 0 6 3 1 5 -13 5 -14 0 -19 -2 -12 -5z"/>
<path d="M10380 4440 l-45 -7 50 -1 c28 0 73 3 100 8 l50 7 -55 0 c-30 0 -75
-3 -100 -7z"/>
<path d="M10610 4428 c-85 -3 -200 -14 -255 -22 -55 -9 -190 -21 -300 -26
-250 -12 -304 -18 -334 -37 l-24 -16 24 -13 c15 -8 19 -14 9 -14 -10 -1 -9 -4
5 -9 17 -7 16 -9 -10 -15 l-29 -7 29 -25 c15 -13 39 -24 52 -24 12 0 23 -4 23
-10 0 -5 22 -10 49 -10 28 0 53 -4 56 -10 4 -6 -19 -10 -62 -10 -45 0 -63 -3
-53 -9 8 -6 18 -7 23 -4 5 3 13 0 17 -6 4 -7 36 -16 71 -21 75 -11 346 -2 373
12 21 11 424 43 432 35 3 -3 -13 -41 -35 -84 -23 -44 -41 -85 -41 -93 0 -7
-27 -56 -59 -109 -32 -53 -62 -107 -66 -120 -9 -29 -36 -62 -46 -55 -5 3 -20
-18 -34 -46 -16 -31 -30 -48 -37 -44 -7 4 -8 3 -4 -4 4 -6 -3 -29 -14 -52 -23
-46 -34 -53 -20 -12 10 26 9 26 -5 7 -9 -11 -14 -27 -12 -36 3 -9 1 -23 -4
-30 -7 -11 -9 -11 -9 -1 0 25 -18 1 -49 -64 -34 -74 -39 -93 -16 -74 9 7 18
10 21 7 6 -5 -110 -233 -131 -257 -7 -8 -31 -51 -53 -95 -21 -44 -64 -127 -95
-185 -39 -74 -54 -112 -50 -128 8 -32 33 -9 33 31 0 26 87 198 157 309 12 21
23 44 23 52 0 8 7 16 15 20 20 7 19 5 -10 -56 -14 -28 -25 -57 -25 -63 0 -5
-36 -82 -80 -169 -59 -117 -77 -161 -68 -167 8 -5 31 20 70 79 32 48 58 83 58
79 0 -5 -13 -27 -28 -50 -16 -23 -41 -64 -57 -90 l-27 -48 26 7 c16 4 26 2 26
-5 0 -6 15 -10 36 -8 61 4 102 61 307 437 157 288 244 454 258 494 8 21 20 41
26 43 7 3 13 10 13 15 0 20 34 84 61 113 30 33 84 135 95 178 3 15 12 31 19
35 7 4 15 21 18 37 3 17 13 45 22 63 21 40 47 138 47 172 0 69 -11 124 -26
132 -9 5 -16 15 -16 22 0 7 -8 22 -18 33 -22 26 -84 31 -292 21z m-12 -73 c-3
-3 -102 -12 -219 -21 -118 -8 -261 -19 -319 -24 -58 -6 -136 -9 -175 -9 -63 1
-66 2 -30 9 34 7 370 34 545 43 108 6 203 7 198 2z m-93 -55 c-33 -5 -168 -13
-300 -19 -132 -6 -253 -13 -270 -15 -16 -3 -39 -1 -50 3 -11 4 56 11 155 15
96 4 209 11 250 15 41 5 120 8 175 8 92 0 95 0 40 -7z m-647 -72 c-2 -6 -10
-14 -16 -16 -7 -2 -10 2 -6 12 7 18 28 22 22 4z m122 8 c0 -2 -8 -10 -17 -17
-11 -10 -14 -10 -9 -1 4 6 2 12 -3 12 -6 0 -11 -4 -11 -10 0 -5 -16 -10 -35
-10 -24 0 -35 5 -35 15 0 12 13 15 55 15 30 0 55 -2 55 -4z m840 -86 c-6 -12
-14 -19 -17 -17 -2 3 1 15 7 27 6 12 14 19 17 17 2 -3 -1 -15 -7 -27z m11 -42
c-5 -13 -31 -64 -58 -114 -28 -51 -67 -126 -88 -168 -34 -70 -65 -112 -65 -89
0 17 31 73 41 73 5 0 9 9 9 19 0 11 3 21 8 23 9 4 64 103 110 200 20 43 40 78
44 78 4 0 4 -10 -1 -22z m-206 -302 c-36 -62 -43 -59 -8 3 15 28 29 48 31 46
2 -2 -8 -24 -23 -49z m-35 -146 c-7 -16 -16 -30 -21 -30 -5 0 -1 16 8 35 20
42 31 38 13 -5z m-39 -73 c-10 -9 -11 -8 -5 6 3 10 9 15 12 12 3 -3 0 -11 -7
-18z m-360 -440 c-10 -9 -11 -8 -5 6 3 10 9 15 12 12 3 -3 0 -11 -7 -18z"/>
<path d="M9913 4393 c9 -2 25 -2 35 0 9 3 1 5 -18 5 -19 0 -27 -2 -17 -5z"/>
<path d="M9788 4383 c12 -2 32 -2 45 0 12 2 2 4 -23 4 -25 0 -35 -2 -22 -4z"/>
<path d="M4797 4245 c-32 -35 -98 -121 -146 -192 -48 -70 -128 -186 -179 -258
l-92 -130 -107 -16 c-61 -9 -93 -17 -73 -19 l35 -2 -30 -13 c-16 -7 -68 -18
-115 -24 -47 -6 -107 -18 -134 -26 -27 -8 -61 -16 -75 -16 -39 -2 66 -17 126
-18 46 -1 52 -4 55 -23 3 -20 11 -24 71 -32 37 -4 67 -11 67 -15 0 -11 -167
-221 -176 -221 -3 0 44 133 61 174 15 34 -26 2 -117 -93 -48 -50 -95 -91 -104
-91 -9 0 -30 -11 -46 -25 -47 -39 -104 -65 -158 -72 -58 -7 -131 23 -198 82
-56 48 -76 88 -69 137 6 44 -8 50 -25 12 -11 -23 -13 -24 -19 -7 -9 22 -11 97
-3 106 3 3 16 -6 29 -21 l23 -27 7 30 c32 143 80 241 158 322 33 35 56 63 52
63 -16 0 -100 -53 -149 -94 -27 -22 -64 -63 -81 -91 -34 -52 -85 -106 -85 -89
0 15 88 145 123 182 112 117 296 214 492 258 94 21 107 29 73 45 -18 8 -39 8
-72 1 -25 -5 -46 -7 -46 -3 0 3 60 21 133 38 72 18 159 44 191 57 54 22 57 25
30 28 -16 2 28 7 97 11 69 4 134 5 145 2 15 -5 16 -4 4 3 -37 24 -172 37 -363
36 -135 0 -194 3 -187 10 21 21 9 28 -37 21 -26 -4 -63 -15 -83 -24 -19 -10
-57 -23 -85 -30 -27 -7 -59 -15 -70 -18 -17 -5 -18 -4 -7 10 8 9 30 21 50 28
20 6 41 15 47 20 31 29 -101 -18 -212 -75 -100 -52 -307 -210 -381 -290 -59
-65 -77 -102 -138 -282 -35 -105 -47 -158 -49 -214 -3 -46 -1 -61 3 -40 7 36
29 47 43 20 4 -8 23 -50 42 -92 73 -159 171 -270 272 -308 192 -72 196 -73
305 -73 107 0 164 13 213 48 21 15 16 16 -73 11 l-95 -6 50 14 c121 35 209 76
252 118 24 23 43 39 43 35 0 -8 -69 -110 -119 -176 l-26 -35 60 38 c33 21 83
56 112 77 59 44 67 47 59 21 -5 -16 -2 -18 26 -14 48 6 155 116 299 305 66 86
132 165 146 174 14 9 60 22 102 29 85 13 126 5 119 -24 -19 -71 -80 -331 -92
-392 -14 -69 -11 -138 7 -156 3 -3 15 13 28 35 12 23 26 38 30 34 9 -10 29
-175 23 -185 -3 -4 -44 -8 -92 -9 -100 -1 -95 -6 21 -23 l82 -11 3 -33 c4 -41
18 -41 43 3 20 33 23 35 78 35 31 0 95 5 141 12 99 14 159 13 206 -2 28 -10
49 -7 131 16 54 15 122 38 152 51 29 13 62 23 72 23 11 0 64 23 119 50 73 37
124 72 190 131 120 108 135 136 135 259 0 81 -3 101 -23 135 -12 22 -21 31
-18 20 12 -54 17 -85 13 -85 -2 0 -18 22 -36 50 -18 27 -42 56 -54 65 -11 8
-18 17 -16 20 3 3 47 2 97 -1 82 -6 91 -9 94 -28 3 -18 13 -22 71 -30 37 -4
67 -12 67 -15 0 -8 -31 -49 -113 -149 -56 -68 -58 -73 -52 -114 5 -35 1 -52
-18 -89 -24 -45 -73 -118 -126 -188 l-26 -35 60 38 c33 21 83 56 112 77 59 44
67 47 59 21 -5 -16 -2 -18 26 -14 48 6 155 116 299 305 66 86 132 165 146 174
14 9 60 22 102 29 85 13 126 5 119 -24 -19 -71 -80 -331 -92 -392 -14 -69 -11
-138 7 -156 3 -3 15 13 28 35 12 23 26 38 30 34 4 -5 15 -71 24 -148 9 -77 18
-142 21 -144 9 -9 34 23 45 57 21 65 58 131 84 148 14 9 25 25 25 35 0 10 5
21 10 24 6 3 10 -3 10 -14 0 -41 31 -21 57 37 62 140 173 690 172 852 0 38 -4
30 -24 -55 -23 -96 -69 -247 -60 -195 2 14 13 78 24 143 12 65 26 179 33 254
14 153 13 154 -60 168 -44 8 -83 31 -79 47 7 32 -136 25 -164 -8 -22 -27 -29
-14 -23 42 l7 55 -65 -68 c-36 -37 -102 -122 -146 -188 -44 -66 -124 -181
-176 -255 l-96 -135 -107 -16 c-61 -9 -93 -17 -73 -19 l35 -2 -30 -13 c-16 -7
-68 -18 -115 -24 -47 -6 -107 -18 -134 -26 -76 -23 -97 -20 -139 23 -41 42
-58 84 -49 128 8 41 95 124 182 172 41 23 71 42 66 42 -18 0 -155 -78 -215
-123 -35 -26 -65 -46 -68 -44 -7 8 49 67 91 96 54 37 271 133 365 161 65 19
83 30 152 93 103 97 96 92 183 123 42 15 75 29 73 31 -9 9 -220 -31 -331 -63
-66 -19 -124 -33 -130 -31 -6 2 22 16 62 32 40 15 71 30 69 32 -2 2 -48 -6
-103 -17 -54 -12 -112 -21 -129 -22 -59 -1 -350 -90 -441 -135 -116 -57 -222
-136 -251 -188 -23 -40 -30 -105 -17 -152 10 -35 20 -27 16 11 -9 76 48 155
149 211 62 33 73 28 22 -11 -52 -39 -82 -72 -104 -116 -50 -98 -3 -184 175
-320 74 -57 91 -87 81 -144 -6 -36 -61 -113 -97 -136 l-24 -16 23 46 c23 46
30 78 14 68 -4 -3 -11 -19 -14 -34 -8 -41 -94 -131 -172 -182 -36 -23 -119
-62 -186 -86 -66 -24 -127 -48 -137 -53 -26 -16 29 -14 113 4 90 19 91 19 25
-11 -124 -56 -370 -127 -387 -111 -9 9 27 67 52 83 14 9 25 25 25 35 0 10 5
21 10 24 6 3 10 -3 10 -14 0 -41 31 -21 57 37 62 140 173 690 172 852 0 38 -4
30 -24 -55 -23 -96 -69 -247 -60 -195 2 14 13 78 24 143 12 65 26 179 33 254
14 153 13 154 -60 168 -44 8 -83 31 -79 47 7 32 -136 25 -164 -8 -22 -27 -29
-14 -23 41 4 30 5 54 3 54 -2 -1 -30 -30 -62 -64z m97 -487 c-22 -67 -44 -88
-93 -88 -22 0 -43 4 -46 10 -11 17 22 64 86 125 64 60 64 60 67 32 2 -15 -4
-51 -14 -79z m2060 0 c-22 -67 -44 -88 -93 -88 -22 0 -43 4 -46 10 -11 17 22
64 86 125 64 60 64 60 67 32 2 -15 -4 -51 -14 -79z m-1159 62 c-10 -11 -20
-18 -23 -15 -7 6 18 35 31 35 5 0 2 -9 -8 -20z m-991 -25 c-4 -8 -13 -15 -21
-15 -13 0 -13 3 -3 15 7 8 16 15 21 15 5 0 6 -7 3 -15z m716 -37 l-1 -53 -15
29 c-12 22 -14 34 -5 52 16 36 21 29 21 -28z m1344 37 c-4 -8 -13 -15 -21 -15
-13 0 -13 3 -3 15 7 8 16 15 21 15 5 0 6 -7 3 -15z m-2105 -56 c-19 -12 -24
-2 -8 17 9 11 14 13 17 4 3 -7 -2 -16 -9 -21z m2060 0 c-19 -12 -24 -2 -8 17
9 11 14 13 17 4 3 -7 -2 -16 -9 -21z m-2805 -560 c-24 -27 -30 -15 -9 18 12
17 20 23 23 15 2 -7 -4 -22 -14 -33z"/>
<path d="M12822 4039 c-57 -35 -82 -56 -82 -70 0 -10 3 -19 8 -19 6 0 110 81
156 123 36 32 1 18 -82 -34z"/>
<path d="M6100 3940 c-8 -5 -10 -10 -5 -10 6 0 17 5 25 10 8 5 11 10 5 10 -5
0 -17 -5 -25 -10z"/>
<path d="M10524 3874 c-4 -10 -9 -22 -11 -26 -2 -5 0 -8 5 -8 10 0 24 41 17
48 -3 3 -8 -4 -11 -14z"/>
<path d="M10490 3821 c0 -5 -3 -17 -7 -27 -4 -11 -3 -15 4 -11 14 9 24 47 12
47 -5 0 -9 -4 -9 -9z"/>
<path d="M10155 3215 c-72 -144 -103 -211 -85 -185 32 45 120 201 120 211 0 6
9 27 21 45 11 19 19 42 17 51 -2 10 -33 -42 -73 -122z"/>
</g>
</svg>
